<svg width="48" height="48" viewBox="0 0 48 48" fill="none" xmlns="http://www.w3.org/2000/svg">
<g clip-path="url(#clip0_161_341)">
<path d="M22.4312 1.98401C23.2319 0.971345 24.7681 0.971345 25.5688 1.98401L28.2604 5.38798C28.7867 6.05358 29.6757 6.31461 30.4783 6.03922L34.583 4.63081C35.8041 4.21181 37.0964 5.04231 37.2225 6.32714L37.6465 10.6459C37.7294 11.4904 38.3362 12.1906 39.1602 12.3929L43.3747 13.4272C44.6285 13.7349 45.2667 15.1322 44.6782 16.2813L42.6999 20.1437C42.3131 20.8989 42.445 21.816 43.0289 22.4317L46.0152 25.5804C46.9036 26.5171 46.6849 28.0376 45.5686 28.686L41.8163 30.8658C41.0825 31.292 40.6976 32.1349 40.856 32.9685L41.6659 37.2318C41.9069 38.5001 40.9009 39.661 39.6112 39.603L35.276 39.4081C34.4284 39.37 33.6489 39.8709 33.3314 40.6578L31.7079 44.6822C31.2249 45.8794 29.751 46.3122 28.6974 45.5662L25.1558 43.0584C24.4633 42.568 23.5367 42.568 22.8442 43.0584L19.3026 45.5662C18.249 46.3122 16.7751 45.8794 16.2921 44.6822L14.6686 40.6578C14.3511 39.8709 13.5716 39.37 12.724 39.4081L8.38878 39.603C7.09908 39.661 6.09313 38.5001 6.33408 37.2318L7.144 32.9685C7.30237 32.1349 6.91746 31.292 6.18375 30.8658L2.43137 28.686C1.31505 28.0376 1.09644 26.5171 1.98484 25.5804L4.97111 22.4317C5.55503 21.816 5.68689 20.8989 5.30008 20.1437L3.32185 16.2813C2.73333 15.1322 3.37147 13.7349 4.62526 13.4272L8.83975 12.3929C9.66383 12.1906 10.2706 11.4904 10.3535 10.6459L10.7775 6.32714C10.9036 5.04231 12.1959 4.21181 13.417 4.63081L17.5217 6.03922C18.3243 6.31461 19.2133 6.05358 19.7396 5.38798L22.4312 1.98401Z" fill="black"/>
<path d="M25.3337 25H27.0003L27.667 22.3333H25.3337V21C25.3337 20.3133 25.3337 19.6667 26.667 19.6667H27.667V17.4267C27.4497 17.398 26.629 17.3333 25.7623 17.3333C23.9523 17.3333 22.667 18.438 22.667 20.4667V22.3333H20.667V25H22.667V30.6667H25.3337V25Z" fill="white"/>
</g>
<defs>
<clipPath id="clip0_161_341">
<rect width="48" height="48" rx="24" fill="white"/>
</clipPath>
</defs>
</svg>
