<svg width="48" height="48" viewBox="0 0 48 48" fill="none" xmlns="http://www.w3.org/2000/svg">
<g clip-path="url(#clip0_161_340)">
<path d="M22.4312 1.98401C23.2319 0.971345 24.7681 0.971345 25.5688 1.98401L28.2604 5.38798C28.7867 6.05358 29.6757 6.31461 30.4783 6.03922L34.583 4.63081C35.8041 4.21181 37.0964 5.04231 37.2225 6.32714L37.6465 10.6459C37.7294 11.4904 38.3362 12.1906 39.1602 12.3929L43.3747 13.4272C44.6285 13.7349 45.2667 15.1322 44.6782 16.2813L42.6999 20.1437C42.3131 20.8989 42.445 21.816 43.0289 22.4317L46.0152 25.5804C46.9036 26.5171 46.6849 28.0376 45.5686 28.686L41.8163 30.8658C41.0825 31.292 40.6976 32.1349 40.856 32.9685L41.6659 37.2318C41.9069 38.5001 40.9009 39.661 39.6112 39.603L35.276 39.4081C34.4284 39.37 33.6489 39.8709 33.3314 40.6578L31.7079 44.6822C31.2249 45.8794 29.751 46.3122 28.6974 45.5662L25.1558 43.0584C24.4633 42.568 23.5367 42.568 22.8442 43.0584L19.3026 45.5662C18.249 46.3122 16.7751 45.8794 16.2921 44.6822L14.6686 40.6578C14.3511 39.8709 13.5716 39.37 12.724 39.4081L8.38878 39.603C7.09908 39.661 6.09313 38.5001 6.33408 37.2318L7.144 32.9685C7.30237 32.1349 6.91746 31.292 6.18375 30.8658L2.43137 28.686C1.31505 28.0376 1.09644 26.5171 1.98484 25.5804L4.97111 22.4317C5.55503 21.816 5.68689 20.8989 5.30008 20.1437L3.32185 16.2813C2.73333 15.1322 3.37147 13.7349 4.62526 13.4272L8.83975 12.3929C9.66383 12.1906 10.2706 11.4904 10.3535 10.6459L10.7775 6.32714C10.9036 5.04231 12.1959 4.21181 13.417 4.63081L17.5217 6.03922C18.3243 6.31461 19.2133 6.05358 19.7396 5.38798L22.4312 1.98401Z" fill="black"/>
<path d="M27.5453 16.0513C28.3573 16.0887 28.9187 16.208 29.4373 16.4093C29.9287 16.594 30.3738 16.8839 30.7413 17.2587C31.1161 17.6262 31.406 18.0713 31.5907 18.5627C31.792 19.082 31.9113 19.6427 31.9487 20.4547C31.9947 21.4613 32 21.816 32 24C32 26.184 31.9947 26.5387 31.9487 27.5453C31.9113 28.3573 31.792 28.9187 31.5907 29.438C31.4059 29.9292 31.116 30.374 30.7413 30.7413C30.3738 31.1161 29.9287 31.406 29.4373 31.5907C28.918 31.792 28.3573 31.9113 27.5453 31.9487C26.5387 31.9947 26.1847 32 24 32C21.8153 32 21.4607 31.9947 20.4547 31.9487C19.6427 31.9113 19.0813 31.792 18.562 31.5907C18.0708 31.4059 17.626 31.116 17.2587 30.7413C16.8839 30.3738 16.594 29.9287 16.4093 29.4373C16.208 28.918 16.0887 28.3573 16.0513 27.5453C16.0053 26.54 16 26.1853 16 24C16 21.8147 16.0053 21.46 16.0513 20.4547C16.0887 19.6427 16.208 19.0813 16.4093 18.5627C16.594 18.0713 16.8839 17.6262 17.2587 17.2587C17.626 16.884 18.0708 16.5941 18.562 16.4093C19.082 16.208 19.6427 16.0887 20.4547 16.0513C21.46 16.0053 21.8147 16 24 16C26.1853 16 26.54 16.0053 27.5453 16.0513ZM24 17.778C21.84 17.778 21.5093 17.7827 20.5353 17.8273C19.9173 17.8553 19.5467 17.934 19.206 18.0667C18.916 18.18 18.7313 18.3 18.5153 18.5153C18.2993 18.7307 18.18 18.916 18.0667 19.2067C17.9347 19.5467 17.8553 19.918 17.8273 20.536C17.7827 21.5093 17.778 21.84 17.778 24C17.778 26.16 17.7827 26.4907 17.8273 27.4647C17.8553 28.0827 17.934 28.4533 18.0667 28.7933C18.18 29.084 18.3 29.2687 18.5153 29.4847C18.7307 29.7007 18.916 29.8207 19.206 29.9333C19.546 30.0653 19.9173 30.1447 20.5353 30.1727C21.51 30.2173 21.8407 30.222 24 30.222C26.16 30.222 26.49 30.2173 27.4647 30.1727C28.0827 30.1447 28.4533 30.066 28.794 29.9333C29.084 29.82 29.2687 29.7 29.4847 29.4847C29.7007 29.2693 29.8207 29.084 29.9333 28.794C30.0653 28.454 30.1447 28.0827 30.1727 27.4647C30.2173 26.49 30.222 26.1593 30.222 24C30.222 21.8407 30.2173 21.51 30.1727 20.5353C30.1447 19.9173 30.066 19.5467 29.9333 19.2067C29.8393 18.9446 29.6857 18.708 29.4847 18.5153C29.292 18.3143 29.0554 18.1607 28.7933 18.0667C28.4533 17.9347 28.082 17.8553 27.464 17.8273C26.49 17.7827 26.1593 17.778 23.9993 17.778M23.9993 28.148C22.8992 28.148 21.8442 27.711 21.0663 26.9331C20.2884 26.1552 19.8513 25.1001 19.8513 24C19.8513 22.8999 20.2884 21.8448 21.0663 21.0669C21.8442 20.289 22.8992 19.852 23.9993 19.852C25.0995 19.852 26.1545 20.289 26.9324 21.0669C27.7103 21.8448 28.1473 22.8999 28.1473 24C28.1473 25.1001 27.7103 26.1552 26.9324 26.9331C26.1545 27.711 25.0995 28.148 23.9993 28.148ZM23.9993 26.3707C24.6281 26.3707 25.2311 26.1209 25.6756 25.6763C26.1202 25.2317 26.37 24.6287 26.37 24C26.37 23.3713 26.1202 22.7683 25.6756 22.3237C25.2311 21.8791 24.6281 21.6293 23.9993 21.6293C23.3706 21.6293 22.7676 21.8791 22.323 22.3237C21.8784 22.7683 21.6287 23.3713 21.6287 24C21.6287 24.6287 21.8784 25.2317 22.323 25.6763C22.7676 26.1209 23.3706 26.3707 23.9993 26.3707ZM28.1473 20.7407C27.9116 20.7407 27.6854 20.647 27.5187 20.4803C27.352 20.3136 27.2583 20.0874 27.2583 19.8517C27.2583 19.6159 27.352 19.3898 27.5187 19.223C27.6854 19.0563 27.9116 18.9627 28.1473 18.9627C28.3831 18.9627 28.6092 19.0563 28.776 19.223C28.9427 19.3898 29.0363 19.6159 29.0363 19.8517C29.0363 20.0874 28.9427 20.3136 28.776 20.4803C28.6092 20.647 28.3831 20.7407 28.1473 20.7407Z" fill="white"/>
</g>
<defs>
<clipPath id="clip0_161_340">
<rect width="48" height="48" rx="24" fill="white"/>
</clipPath>
</defs>
</svg>
